<svg xmlns="http://www.w3.org/2000/svg" xmlns:xlink="http://www.w3.org/1999/xlink" width="1920.001" height="749.407" viewBox="0 0 1920.001 749.407">
  <defs>
    <clipPath id="clip-path">
      <path id="Grey_Background_Wave" data-name="Grey Background Wave" d="M-17097,2100.1s211.443,38.926,457.313,117.85,320.976,206.019,526.165,197.846c110.186-4.389,381.7-55.051,624.5-248.671,175.868-156.643,312.027-148.135,312.027-148.135l-4.034,650.014H-17097Z" transform="translate(17097 -2018.904)" fill="#f3f3f6"/>
    </clipPath>
  </defs>
  <g id="Group_42" data-name="Group 42" transform="translate(0 -330.593)">
    <g id="Group_41" data-name="Group 41">
      <path id="Grey_Background_Wave-2" data-name="Grey Background Wave" d="M-17097,2100.1s211.443,38.926,457.313,117.85,320.974,206.018,526.164,197.845c110.186-4.389,381.7-55.051,624.493-248.671,175.868-156.643,312.028-148.135,312.028-148.135l-4.035,650.014H-17097Z" transform="translate(17097 -1589)" fill="#f3f3f6"/>
      <path id="First_Background_Wave" data-name="First Background Wave" d="M-17097,2316.6s276.133-65.409,383.7-58.321c210.23,13.578,457.083,191,774.184,218.371,288.227,24.883,499.371-221.656,623.462-353.344,46.037-48.855,138.649-91.014,138.649-91.014V2672l-1920-2.033Z" transform="translate(17096.998 -1592)" fill="#3bde7e"/>
      <path id="Second_Background_Wave" data-name="Second Background Wave" d="M-17097,2176.164s173.986-55.054,441.127,212c104.514,104.481,367.594,141.805,633.156,87.009,160.532-33.124,314.454-141.169,456.61-171.067,224.271-41.4,389.1,34.15,389.1,34.15v333.289l-1920,.453Z" transform="translate(17097 -1592)" fill="#e0feb6"/>
      <g id="Group_39" data-name="Group 39" transform="translate(0 330.593)">
        <path id="Third_Background_Wave" data-name="Third Background Wave" d="M-17097,2289.431s363.979,24.607,654.914,183.511c111.72,61.019,248.187,96.411,497.047,61.054,267.45-52.23,414.667-249.684,507.529-279.59,159.055-56.472,260.511,35.026,260.511,35.026v380.817h-1920Z" transform="translate(17096.998 -1920.841)" fill="#06330d"/>
      </g>
    </g>
    <g id="Group_40" data-name="Group 40">
      <g id="Mask_Group_4" data-name="Mask Group 4" transform="translate(0 429.904)" opacity="0.332" clip-path="url(#clip-path)">
        <g id="Whangaehu" transform="translate(-254.62 -913.353)">
          <path id="Shape" d="M1666.237,1200.561c.15,39.339,60,83.574,85.568,106.385,50.552,45.109,103.127,86.766,155.216,129.088s104.318,84.529,153.989,130.993c32.25,30.161,70.146,64.131,92.018,107.2,46.6,91.78-100.315,78.15-138.369,80.158-96.809,5.129-207.849,2.786-298.591,50.582-54.17,28.532-75.771,76.384-64.137,146.125,3.752,22.681,14.851,48.781,5.447,70.877-10.041,23.6-33.141,37.217-52.313,46.349-69.93,33.27-150.331,37.125-224.321,41.3-79.784,4.59-160.316,3.247-239.537,3.6-33.591.149-68.673,14.914-100.662,26.915-41.935,15.729-83.37,33.4-124.962,50.479-91.493,37.492-185.776,76.981-282.569,86.5-60.62,5.966-126.875-2.1-173.966-53.989-23.644-26.047-36.02-64.786-49.689-99.191-16.548-41.564-32.438-83.531-50.054-124.442C302.557,1867.729,221.536,1738.973,90.03,1732.5c-19.895-.975-39.433,2.2-59.233,2.8-12.61.368-23.831-3.361-28.519-19.5-11.784-40.486,25.257-104.4,40.444-136.523,33.254-70.316,70.755-137.48,105.88-206.379,23.241-45.569,63.47-107.842,63.892-163.207.375-49.331-53.251-84.988-82.446-109.286-27.356-22.75-76.924-54.587-79.924-100.866C48.67,977.1,60.764,958.5,73.393,944.07c22.135-25.24,47.635-43.041,67.548-71.841,32.653-47.243,59.936-112.246,55.5-175.908-3.075-44.112-23.644-73-49.811-100.614-11-11.61-19.923-19.824-20.5-38.674-.938-29.932,8.644-61.607,16.535-89.359C170.9,368.36,211.008,272.322,255.629,182.652c22.295-44.811,46.379-89.485,75.939-127.712,19.364-25.1,45.474-54.975,75-54.94,34.191,0,70.37,15.1,103.605,26.387,62.08,21.1,123.4,45.487,184.483,70.509q211.879,86.835,419.775,187.736c97.624,47.462,197.32,95,289.1,158.1a332.3,332.3,0,0,1,50.457,43.148c16.735,17.133,37.5,24.794,58.558,30.5,130.691,35.462,273.87,8.238,405.1-8.834,33.311-4.325,66.62-8.674,100.025-11.7,28.717-2.6,63.1-10.073,91.005,1.148,55,22.085,6.918,103.482-13.406,136.644-71.559,116.779-163.889,215.579-249.465,316.445-40.689,48.036-81.686,95.945-120.163,146.7C1705.611,1123.166,1666.106,1166.074,1666.237,1200.561Z" transform="translate(2636.561 2278.796) rotate(180)" fill="none" stroke="#fff" stroke-miterlimit="10" stroke-width="5"/>
          <path id="Shape-2" data-name="Shape" d="M1569.34,1136.147c21.935,41.627,60.418,72.394,92.363,101.349,45.97,41.684,93.385,81.052,140.087,121.555,44.16,38.3,88.412,77.038,129.307,120.534,24.936,26.524,56.224,58.243,68.035,97.473,25.621,85.031-112.213,72.13-146.24,74.355-84.594,5.5-180.5,6.765-258.764,51.538-48.869,27.957-68.946,74.32-58.523,138.686,3.6,22.27,10.095,41.283,1.876,63.437-9.5,25.641-31.363,41.627-51.4,52.911-62.772,35.354-136.971,42.866-205.016,49.115-70.3,6.456-143.535,11-211.575,6.285-27.207-1.88-58.523,8.795-85.454,16.984-41.429,12.614-82.436,27.162-123.665,40.7-83.779,27.521-169.733,54.034-256.888,57.051-62.922,2.178-128.529-9.632-180.878-55.285-53.053-46.293-76.592-118.057-106.019-186.276C265.77,1768.615,197.144,1625.215,79.593,1600.3c-17.825-3.785-34.956-1.731-52.762-2.661-9.157-.471-19.579-1.961-24.223-13-12.055-28.669,20.981-81.087,32.1-103.046,30.715-60.685,65.25-118.4,97.437-177.916,25.567-47.257,57.969-99.767,67.858-155.784,12-67.974-66.4-116.348-93.976-164.213-47.8-83,42.762-130.293,87.409-169.867,51.273-45.434,93.591-128.32,47.631-198.615-17.581-26.883-39.216-42.9-47.068-77.978-12.28-54.86-2.993-117.552,6.971-171.782,15.007-81.521,38.767-162.161,71.056-235.839C295.158,76.842,333.539-5.873,389.744.33c37.836,4.14,76.3,19.265,113.143,32.636C558.05,52.976,612.519,75.785,666.7,99.477c125.08,54.532,248.768,114.667,370.022,180.811,82.739,45.147,313.527,229.649,330.893,236.229,51.777,19.609,110.647,16.158,164.029,13.118,71-4.039,141.662-14.495,212.26-24.185,33.605-4.587,67.38-10.195,101.156-12.454,24.038-1.606,55.623-2.982,76.685,14.116,41.11,33.359-4.691,109.686-23.633,141.978-58.026,99-131.427,184.729-200.251,272.385-33.775,43.041-68.063,86.005-98.722,132.495C1586.779,1072.743,1555.782,1110.436,1569.34,1136.147Z" transform="translate(2564.323 2207.75) rotate(180)" fill="none" stroke="#fff" stroke-miterlimit="10" stroke-width="5"/>
          <path id="Shape-3" data-name="Shape" d="M1490.276,1022.356c59.9,83.3,137.678,146.1,209.035,215.667,35.814,34.929,58.758,83.932,89.648,125.531,16.068,21.633,36.127,48.991,39.229,79.148,8.273,80.673-115.959,69.764-153.142,72.827-71.89,5.942-153.1,10.447-218.325,51.617-39.848,25.167-59.471,66.473-52.023,120.765,3.3,24.089,8.443,44.552,0,68.2-8.555,23.958-26.377,40.869-44.425,53.545-51.863,36.454-116.315,48.108-174.707,56.792a1155.161,1155.161,0,0,1-206.488,11.815c-60.409-1.939-120.527,19.867-179.51,34.24-78.137,19.03-157.692,35.65-237.649,33.139-63.149-2-126.793-17.676-180.774-59.349-54.856-42.442-87.837-105.965-117.573-174.513C218.62,1608.15,162.6,1469.293,63.987,1429.937c-14.342-5.735-27.709-6.366-42.5-7.364-7.185-.482-16.463-.631-20.027-9.8-8.577-22.072,23.118-64.858,31.964-79.762,28.235-47.609,58.838-93.067,87.78-140.04,27.015-43.852,56.441-89.552,73.227-140.94,26.706-81.843-58.673-129.7-56.275-207.683,1.491-48.418,39.4-83.139,69.414-107.159,36.961-29.537,90.179-48.957,108.67-102.857,13.78-40.148-7.842-63.517-24.491-93.978-28.215-51.618-30.138-121.588-27.2-181.339,3.959-80.741,19.427-162.676,45.756-236.891,11.922-33.648,26.535-68.64,48.049-94.775C378.513,2.863,397.592-3.412,424.531,1.6,507,16.971,590.271,59.815,669.361,98.081c99.365,48.085,197.36,101.171,292.43,160.9,64.827,40.733,131.117,83.827,188.017,140.1,14.83,14.671,30.013,30.615,40.861,49.966,8.2,14.545,11.672,26.554,25.5,34.859,40.954,24.6,97.921,18.169,141.8,15.612,70.17-4.071,139.991-14.912,209.724-24.674,40.692-5.735,117.348-23.778,149.841,19.5,28.047,37.372-5.8,101.09-23.085,134.012-43.73,83.254-99.984,156.322-152.177,231.557-23.92,34.48-30.776,55.259-50.536,93.591-2.357,4.564-5.377,9.821-8.216,15.645-2.922,5.989-5.564,12.623-6.3,18.951C1475.651,1001.7,1482.921,1012.084,1490.276,1022.356Z" transform="translate(2497.608 2086.575) rotate(180)" fill="none" stroke="#fff" stroke-miterlimit="10" stroke-width="5"/>
          <path id="Shape-4" data-name="Shape" d="M1375.418,916.638c55.352,73.653,122.037,134.161,181.46,203.086,26.644,30.9,53.55,63.32,73.852,101.019,10.92,20.272,22.51,45.792,19.5,70.99-8.64,72.321-110.817,65.789-152.1,70.024-61.335,6.218-131.8,12.486-186.04,51.487-35.528,25.542-48.851,63.263-42.217,111.913,7.121,52.185-8.8,90.068-45.032,119.18-45.426,36.471-102.767,51.336-155.51,61.9A877.883,877.883,0,0,1,877.074,1723c-62.6-1.47-123.257,11.365-185.447,19.71-82.456,11.054-167.557,16.507-249.083-6.153-70.981-19.733-135.1-63.217-183.158-130.464-50.2-70.186-75.054-158.612-115.816-236.258-25.428-48.432-60.878-112.5-108.381-131.325-15.84-6.279-44.722,2.192-32.067-28.694,7.234-17.666,20.772-33.164,31.467-47.605,17.281-23.338,35.135-46.033,52.707-69.049,37.451-49.064,77.558-99.175,105.628-157.268,35.368-73.147-17.206-129.443-10.8-203.611,3.443-39.914,26.123-71.77,50.126-96.795,15.526-16.209,32.514-30.248,49.864-43.346,18.108-13.688,39.548-24.114,55.344-41.8,22.51-25.174,12.74-54.975,8.519-87.519a859.456,859.456,0,0,1-4.863-172.973c5.141-70.7,17.2-143.424,42.592-207.674,9.879-25.014,22.395-51.538,40.979-68.3S462.494-1.754,483.79,3.3c63.167,14.924,126.2,49.649,186.124,82.56,75,41.2,148.521,87.243,218.734,139.625,48.466,36.16,97.091,75.225,137.638,124.248,11.793,14.269,23.013,29.548,32.085,46.607,6.229,11.7,9.569,26.793,18.594,35.586,28.239,27.447,84.932,19.251,118.049,17.655,66.094-3.18,131.147-18.3,197.156-21.972,36.026-2.009,92.446-7.059,118.9,30.467,24.88,35.277,2.345,90.837-12.525,124.827-29.224,66.833-68.486,126.377-103.676,188.5-14.466,25.565-30.322,52.312-39.694,81.5C1346.851,878.925,1361.234,897.754,1375.418,916.638Z" transform="translate(2405.898 1986.285) rotate(180)" fill="none" stroke="#fff" stroke-miterlimit="10" stroke-width="5"/>
          <path id="Shape-5" data-name="Shape" d="M1281.222,788.676c44.058,64.812,97.172,122.345,141.549,188.211,25.975,38.573,70.709,103.419,50.621,157.8-22.039,59.756-98.859,61.384-143.264,66.2-52.851,5.732-114.912,13.561-160.147,50.873-14.3,11.8-26.491,27.408-31.657,47.973-5.53,22.008.515,41.266,1.3,63.3,1.649,46.218-20.9,83.324-50.752,108.807-42.184,36.027-94.932,53.061-144.755,64.937a725.871,725.871,0,0,1-171.325,19.717c-54.951-.23-109.32,1.26-164.328,2.981-71.937,2.293-144.886-1.41-214.667-24.783-68.74-23.04-131.237-66.222-180.329-129.738-47.892-61.984-80.2-137.739-108.5-214.908-16.058-43.8-43.187-109.254-81.489-131.378-17.041-9.851-33.758-9.174-15.644-34.783,22.807-32.246,53.544-58.118,79.962-85.7,38.106-39.8,77.167-80.379,109.152-127.7,20.426-30.216,29.528-59.539,28.122-98.663-1.088-29.808-6.018-59.3-3.525-89.217,5.836-70.222,51.052-118.378,91.022-163.221,25.713-28.842,49.2-50.841,62.432-91.865,15.654-48.489,22.232-101.241,32.688-151.586,11.493-55.286,24.766-112.8,49.851-161.491C479.867,11.094,507.03-8.346,547.669,3.34c63.4,18.2,125.889,63.046,182.164,104.531,57.285,42.205,113.586,89.663,161.057,147.678,25.629,31.328,43.12,68.113,65.882,101.769,28.624,42.252,93.394,26.251,131.884,22.674,63.893-5.938,264.94-50.369,246.389,93.538-7.744,60.066-38.236,115.5-60.538,168.506-9.243,22-22.62,48.4-24.71,73.6C1247.521,743.087,1267.976,769.161,1281.222,788.676Z" transform="translate(2325.314 1859.527) rotate(180)" fill="none" stroke="#fff" stroke-miterlimit="10" stroke-width="5"/>
          <path id="Shape-6" data-name="Shape" d="M1192.651,674.528c33.669,58.732,73.962,114.219,102.851,177.654,18.742,41.082,37.145,95.971,12.968,139.44-27.287,49.053-87.455,60.487-131.666,66.738-45.551,6.434-99.927,11.848-137.158,49.042-11.844,11.847-21.608,27.823-23.427,46.953-1.752,18.35,3.2,36.7,1.556,55.383-3.674,41.953-24.466,76.521-51.273,101.592-79.3,74.17-197.334,90.662-293.018,92.6-47.893.964-97.182-4.1-145.385-7.718-62.548-4.7-125.194-14.8-184.844-39.121-126.831-51.7-211.84-166.369-271.212-309.054-18.687-44.913-32.984-93.506-62.268-129.6-15.1-18.637-11.8-32.022,3.636-49.018,24.129-26.563,53.562-46.862,80.344-69.031,38.092-31.529,77-63.526,110.685-101.294,23.22-26.035,39.7-51.12,44.707-90.158,3.57-27.834,2.736-56.2,4.883-84.205,4.085-53.209,18.076-106.007,42.842-150.14,19.678-34.98,43.105-66.772,67.319-97.086a731.9,731.9,0,0,0,82-126.4c31.69-62,76.22-176.37,150.865-146.1,82.329,33.4,159.5,118.258,212.316,200.477,17.738,27.606,32.3,61.462,56.223,81.82,35.814,30.427,72.154,29.361,114.752,29.234,63.778-.173,202.555-17.112,204.054,99.78.591,46.311-15.789,90.1-23.633,134.645C1151.928,600.852,1169.656,634.5,1192.651,674.528Z" transform="translate(2260.006 1750.883) rotate(180)" fill="none" stroke="#fff" stroke-miterlimit="10" stroke-width="5"/>
          <path id="Shape-7" data-name="Shape" d="M1114.774,585.724c33.3,76.547,107.986,202.331,51.182,287.452-30,44.991-83.068,61.89-127.585,71.963-35.824,8.148-79.028,11.209-106.1,45.751-19.895,25.4-11.063,62.359-18.686,94.152-9.46,39.419-31.175,71.665-57.857,95.9-74.565,67.746-178.242,88.536-267.94,92.96-93.158,4.584-195.8-16.854-283.466-58.107-109.3-51.448-191.191-148.867-248.458-272.238-10.56-22.773-20.167-46.141-30.312-69.19-6.816-15.461-16.923-30.417-22.3-46.68-8.944-27.117,1.594-49.283,18.489-66.954,24.3-25.443,54.154-43.552,81.86-62.646C141.5,671.96,180.227,646.3,215.47,615.641c23.683-20.63,48.473-42.853,56.949-78.645,5.784-24.412,6.985-50.267,6.778-75.55-.45-54.211,1.876-98.048,22.559-147.7,34.034-81.51,86.37-154.8,141.658-215.787C486.805,50.1,555.463-24.246,618.684,7.753c56.724,28.652,89.9,97.235,127.278,152.682,18.171,26.956,38.581,51.574,62.564,70.749,30.237,24.171,58.7,34.314,94.526,38.269,60.3,6.66,151.212,8.39,169.851,96.868,6.882,32.653,2.953,66.474,6.563,99.55C1084.182,509.611,1097.973,547.111,1114.774,585.724Z" transform="translate(2205.351 1667.314) rotate(180)" fill="none" stroke="#fff" stroke-miterlimit="10" stroke-width="5"/>
          <path id="Shape-8" data-name="Shape" d="M1031.514,522.985c23.715,83.758,54.869,189.316-2.408,263.757-27.744,36.063-66.768,56.222-104.531,71.288-27.051,10.8-70,13.975-86.585,47.168-12.18,24.427-13.867,58.126-24.886,84.3a239.939,239.939,0,0,1-65,88.817c-70.1,60.452-161.411,83.815-244.679,90.5C322.5,1183.331,138.409,1067.733,41.591,877.546,12.723,820.854-24.539,760.513,22.112,702.6c50.934-63.185,127.662-92.787,188.451-137.685,23.227-17.141,52.826-37.748,65.785-68.785,7.8-18.657,8.33-42.066,8.686-62.6.936-52.308,4.488-99.351,21.676-148.16,26.553-75.429,68.9-145.016,116.876-202.018,41.845-49.7,101.52-108.116,162.294-72.284C632.475,38.6,662.024,97.05,698.23,140.134c40.3,47.983,90.117,80.316,144.836,96.111,53.229,15.322,111.612,25.667,139.664,90.791,9.622,22.339,19.677,51.259,23.284,75.99a903.061,903.061,0,0,0,25.495,119.958Z" transform="translate(2156.675 1607.412) rotate(180)" fill="none" stroke="#fff" stroke-miterlimit="10" stroke-width="5"/>
          <path id="Shape-9" data-name="Shape" d="M948.436,434.646c10.977,84.577,12.19,172.769-38.782,239.428-23.79,31.1-53.861,53.192-84.27,73.21-22.371,14.729-45.478,27.152-62.189,51.3-15.482,22.357-27.249,48.317-42.2,71.26a327.463,327.463,0,0,1-69.868,77.947c-66.577,53.1-147.565,77.936-225.046,86.551-37.508,4.187-78.194,6.367-115.449-5.048-35.98-11.012-71.559-28.426-104.638-48.729C135.671,937.443,74.721,874.294,30.536,794.453.245,739.69-16.143,686.44,23.091,630.884c44.231-62.622,113.583-97.174,170.745-137.816,39.2-27.875,83.145-55.2,90.469-114.437C290.14,331.5,294.872,286.758,309.96,242.2c22.454-65.719,55.47-125.25,97.089-175.064C445.11,21.758,493.26-16.75,547.7,7.488c43.134,19.237,76.6,62.335,114.286,93.147,42,34.413,88.143,53.387,136.735,68.644,43.668,13.766,84.786,34.919,113.011,79.829a224.289,224.289,0,0,1,16.3,29.435c5.683,13.093,5.241,26.085,6.357,40.769C937.3,358.064,943.47,396.366,948.436,434.646Z" transform="translate(2112.163 1519.661) rotate(180)" fill="none" stroke="#fff" stroke-miterlimit="10" stroke-width="5"/>
          <path id="Shape-10" data-name="Shape" d="M862.789,335.691c-.938,80.336-16.73,156.261-59.985,218.868-18.491,26.783-40.573,48.842-60.921,73.385-16.384,19.779-31.867,38.166-50.706,54.472-44.688,38.606-81.008,88.563-128.5,122.941-63.4,45.959-136.015,71.363-208.071,81.52-35.185,4.963-71.531,6.7-107.13,1.092-30.569-4.814-59.853-21.715-87.015-39C107.228,815.094,55.539,766.952,20.972,706.044-55.236,571.768,95.016,474.135,172.133,416.963c35.466-26.3,89.658-56.76,104.186-108.854,10.385-37.216,16.712-75.062,30.085-111.129C342.33,100.122,415.258-13.8,512.448,1.368c41.579,6.48,79.479,32.8,118.3,50.475,39.974,18.2,81.229,28.344,122.775,39.478,38.831,10.4,69.779,25.2,94.86,64.871,11.987,18.944,10.928,41.627,12,64.871C862.133,259.244,863.211,297.642,862.789,335.691Z" transform="translate(2069.039 1413.799) rotate(180)" fill="none" stroke="#fff" stroke-miterlimit="10" stroke-width="5"/>
          <path id="Shape-11" data-name="Shape" d="M778.168,247.089c-15.61,121.261-73.6,253.643-158.867,324.064-100.29,82.839-208.945,152.6-328.775,172.65-55.556,9.3-116.415,13.873-168.837-16.534-39.9-23.126-86.239-57.7-108.2-106.311-53.718-118.91,65.765-213.57,133.839-268.582,36.649-29.616,83.3-58.474,110.925-101.723,16.026-25.072,24.208-58.246,37.147-85.785C334.616,81.41,399.163,14.1,479.565,2.058c37.175-5.56,74.616,1.319,111.517,6.788,37.767,5.6,76.006,8.636,113.535,16.436,29.961,6.237,65.268,16.8,76.3,56.021C794.833,130.736,784.541,197.569,778.168,247.089Z" transform="translate(2023.112 1314.902) rotate(180)" fill="none" stroke="#fff" stroke-miterlimit="10" stroke-width="5"/>
          <path id="Shape-12" data-name="Shape" d="M697.074,203.889C674.3,317.894,626.084,429.1,545.024,497.159c-42.986,36.089-92.885,61-140.8,85.615-54.306,27.9-111.049,49.55-168.991,60.291C163.083,656.445,46.222,668.5,8.525,567.925-28.891,468.092,65.659,379.734,121.571,329.38c35.849-32.257,74.212-61.862,108.462-97.125,18.572-19.118,32.878-41.208,48.6-63.629C322.064,106.5,383.989,57.317,447.107,31.062,508.274,5.61,583.952-5.659,648.526,2.753c27.862,3.622,47.778,15.812,56.2,50.49C716.406,101.45,706.486,156.794,697.074,203.889Z" transform="translate(1979.976 1252.222) rotate(180)" fill="none" stroke="#fff" stroke-miterlimit="10" stroke-width="5"/>
          <path id="Shape-13" data-name="Shape" d="M609.286,183.056C586.665,283.433,537.88,375.11,466.7,435.359,386.926,502.894,284.2,540.422,189.776,559.5,139.589,569.641,30.83,597.123,5.251,518.47S53.626,362.305,96.189,319.635C147.848,267.926,203.543,218,259.178,171.606c48.323-40.339,99.9-81.58,152.257-112.731a497.869,497.869,0,0,1,91.907-43.115C526.759,7.671,556.536-4.4,581.087,1.625,643.008,16.835,620.1,135.062,609.286,183.056Z" transform="translate(1929.9 1200.684) rotate(180)" fill="none" stroke="#fff" stroke-miterlimit="10" stroke-width="5"/>
          <path id="Shape-14" data-name="Shape" d="M515.414,158.792C465.781,348.618,308.528,441.97,157.12,474.518c-35.184,7.554-133.809,34.788-153.479-23.2-19.063-56.223,41.552-122.9,69.927-154.49,87.926-97.885,196.553-170.464,299.493-242.366C405.192,32.019,463.141-16.684,503,5.782,546.27,30.226,525.7,119.43,515.414,158.792Z" transform="translate(1882.612 1146.361) rotate(180)" fill="none" stroke="#fff" stroke-miterlimit="10" stroke-width="5"/>
          <path id="Shape-15" data-name="Shape" d="M410.383,125.675C367.219,265.467,241.675,345.643,126.249,372.081c-28.271,6.467-100.073,26.6-121.485-12.407C-15.052,323.588,32.237,271.3,49.923,250.521,89.309,204.253,135.987,166.138,182.1,129.5c42.637-33.9,85.732-68.641,130.6-97.307C336.329,17.1,380.646-15.1,407.5,8.2,436.418,33.264,419.966,94.634,410.383,125.675Z" transform="translate(1828.373 1076.708) rotate(180)" fill="none" stroke="#fff" stroke-miterlimit="10" stroke-width="5"/>
          <path id="Shape-16" data-name="Shape" d="M287.664,87.128C254.765,178.418,166.654,237.7,88.929,257.4c-20.913,5.293-66.117,19.01-83.759-5.37-16.242-22.452,9.935-55.368,21.553-70.57C78.215,114.079,153.617,53.891,222.7,16.925,240.072,7.632,271.3-10.61,289.167,8.15,307.5,27.411,295.22,66.163,287.664,87.128Z" transform="translate(1761.622 997.32) rotate(180)" fill="none" stroke="#fff" stroke-miterlimit="10" stroke-width="5"/>
          <path id="Shape-17" data-name="Shape" d="M153.2,43.294C134.66,88.625,86.208,122.825,46.074,133.719c-28.246,7.661-62.2,1.042-37.582-38.416C32.947,56.134,78.321,20.374,116.778,4.519,146.119-7.573,169.117,4.356,153.2,43.294Z" transform="translate(1686.531 915.138) rotate(180)" fill="none" stroke="#fff" stroke-miterlimit="10" stroke-width="5"/>
          <path id="Shape-18" data-name="Shape" d="M896.431,572.036c1.189,89.564,40.087,182.634,20.877,273.888-15.775,74.947-95.192,81.207-142.841,115.159-37.86,26.976-59.345,74.763-79.82,120.613-18.4,41.163-34.919,83.565-54.3,124.052-12.544,26.174-34.087,77.571-61.292,78.5-26.045.894-49.927-39.158-65.056-62.834-19.731-30.861-37.214-63.762-56.368-95.116-32.279-52.887-71-92.034-115.358-129.082q-75.7-63.238-153.9-122.15c-38.384-29-77.03-57.792-113.925-89.661C51.314,765.4.236,727.889,0,691.023c-.113-17.591,13.509-37.072,22.693-51.134,15.54-23.8,33.254-45.563,51.022-66.86,33.094-39.662,67.592-77.525,101.711-115.847,44.3-49.731,86.6-98.647,125.539-155.116,40.257-58.445,78.715-118.815,117.96-178.359,26.578-40.339,53.129-85.639,91.465-110.392,48.017-30.941,87.43,1.684,135.99,2.063,41.772.333,38.692,118.78,44,151.716,5.327,33.336,17.067,64.369,21.616,97.782,5.673,41.713,5.748,84.389,7.143,126.55,1.694,51.568,2.362,100.663,47.408,120.328,25.634,11.174,53.357,13.522,79.9,20.215C863.636,536.316,896.057,543.742,896.431,572.036Z" transform="translate(922.629 1757.849) rotate(180)" fill="none" stroke="#fff" stroke-miterlimit="10" stroke-width="5"/>
          <path id="Shape-19" data-name="Shape" d="M830.042,501.606c4.378,75.078,30.247,171.158,5.785,248.651-20.9,66.223-86.26,74.808-130.271,109.594-36.333,28.694-52.506,75.646-70.667,121.772-14.57,37-28.7,74.361-45.239,110.179-12.189,26.4-30.8,70.963-56.144,76.426-22.788,4.913-47.218-34.431-60.007-54.448-18.658-29.221-34.617-60.955-51.1-92.022-28.961-54.573-58.624-103.649-101-143.738-42.577-40.255-89.157-70.366-136.235-101.7-36.829-24.515-73.471-49.742-108.463-78.045-26.068-21.07-63.545-48.041-75.471-85.618-9.449-29.726,38.442-79.055,52.562-96.464,29.066-35.8,59.867-69.4,90.723-102.8,37.617-40.7,76.434-76.288,109.654-122.715,59.416-83,109.081-186.366,185.534-248.059C485.809,5.418,537.124-4.1,588.412,1.469c20.309,2.2,25.185,37.29,27.744,57.753,4.257,34,4.791,68.576,8.059,102.709,3.067,31.952,9.872,62.309,15.358,93.641,5.551,31.746,7.107,64.272,11.2,96.235,2.532,19.843,5.036,42.936,16.108,58.889,11.458,16.516,30.359,23.436,46.88,28.694C744.786,449.167,826.949,448.628,830.042,501.606Z" transform="translate(876.776 1671.488) rotate(180)" fill="none" stroke="#fff" stroke-miterlimit="10" stroke-width="5"/>
          <path id="Shape-20" data-name="Shape" d="M734.126,410.457c7.364,68.91,17.673,154.738-12.326,218.227-24.522,51.912-76.819,63.11-114.174,96.935-31.069,28.128-42.8,72.864-58.22,114.437-12.654,34.1-25.375,68.349-40.712,100.8-11.632,24.608-26.623,57.976-49.718,66.56-19.746,7.335-42.055-25.526-53-41.882-18.64-27.876-33.837-59.109-48.93-89.932-24.69-50.433-47.41-104.305-82.55-145.328-34.146-39.808-74.708-63.3-116.03-89.726-31.65-20.242-63.1-41.264-92.926-65.4-22.9-18.526-51.273-40.472-63.207-71.295-10.318-26.581,16.172-58.044,29.409-76.8,21.857-30.948,46.116-59.338,70.031-87.845,25.816-30.753,54.409-59.122,79.389-90.631,52.533-66.3,94.5-139.723,159.248-190.523,41.93-32.906,98.356-62.8,147.923-57.424,35.646,3.874,33.3,100.408,36.726,131.252,5.629,50.433,16.5,103.422,33.765,149.877,14.831,39.808,50.075,52.084,82.495,61.009,20.309,5.605,41.595,8.636,61.238,17.3C725.3,370.11,731.04,381.572,734.126,410.457Z" transform="translate(807.291 1548.911) rotate(180)" fill="none" stroke="#fff" stroke-miterlimit="10" stroke-width="5"/>
          <path id="Shape-21" data-name="Shape" d="M624.721,313.216c4.384,58.26,3.4,127.153-25,177.55-24.89,44.143-69.2,55.765-100.722,90.539-24.594,27.13-34.259,71.366-47.488,107.243-16.167,43.867-38.823,124.888-79.607,141.4-37.933,15.347-77.616-82.689-91.353-111.922-21.744-46.27-39.93-97.012-66.3-139.741-22.711-36.787-53.14-57.122-85.438-78.978C87.629,471.393,25.11,438.3,3.093,383.9-13.318,343.366,40.054,283.106,58.27,255.022c19.06-29.337,33.415-64.111,53.079-92.414,31.039-44.661,81.334-80.619,122.861-108.059,40.379-26.691,92.8-56.233,138.6-54.474,30.1,1.149,35.827,58.03,42.249,85.816,9.2,39.5,21.434,74.894,47.714,101.759,26.748,27.348,58.276,40.234,91.418,51.513,17.012,5.747,36.419,10.231,51.638,21.842C622.648,273.637,623.032,290.822,624.721,313.216Z" transform="translate(722.541 1419.371) rotate(180)" fill="none" stroke="#fff" stroke-miterlimit="10" stroke-width="5"/>
          <path id="Shape-22" data-name="Shape" d="M512.7,231.187c-.243,50.333-9.649,104-37.536,142.829-23.227,32.339-59.585,43.148-81.819,76.207-17.612,26.173-26.577,62.915-38.368,93.31C340.551,580.779,320.16,645.844,284.3,658.771c-35,12.583-65.957-59.083-79.377-87.441-19.652-41.581-35.561-85.657-55.391-127.124C134,411.673,115,390.7,89.7,369.736,60.01,345.108,18.581,317.825,2.721,277.079c-11.436-29.5,16.246-76.642,26.3-102.632,6.738-17.456,12.906-35.186,16.293-54.108,2.64-14.734,2.9-28.369,10.546-41.021C75.1,47.5,117.309,43.343,145.945,32.853,183.977,18.932,224.331,3.112,264.132.092,288.594-1.8,301.078,25.784,315.04,45.185c16.5,22.936,39.856,39.43,60.259,56.739,26.924,22.879,56.225,37.108,86.537,51.677,13.673,6.577,29.735,13.029,40.325,26.1C513.22,193.265,512.78,213.02,512.7,231.187Z" transform="translate(640.555 1303.76) rotate(180)" fill="none" stroke="#fff" stroke-miterlimit="10" stroke-width="5"/>
          <path id="Shape-23" data-name="Shape" d="M417.23,192.813c-4.834,42.272-19.9,82.675-45.341,112.558-19.5,22.943-45.406,35.86-61.059,63.426-14.59,25.7-24.75,54.914-36.8,82.388-12.75,29.046-31.692,77.593-61.1,85.5-31.692,8.512-56.1-40.46-69.622-67.6-17.077-34.3-30.052-71.2-45.321-106.684a303.794,303.794,0,0,0-43.529-71.753c-18.2-22.266-42.886-43.6-52.1-74.209-8.141-27.119,7.086-59.927,9.781-87.425,2.876-29.378-2.163-60.236,13.78-85.462C58.807-8.476,141.328,1.171,188.5.058c46.548-1.148,83.973,30.686,121.641,60.97,24.88,20,50.792,36.926,76.3,55.556C412.452,135.594,421.482,155.612,417.23,192.813Z" transform="translate(576.639 1235.507) rotate(180)" fill="none" stroke="#fff" stroke-miterlimit="10" stroke-width="5"/>
          <path id="Shape-24" data-name="Shape" d="M349.014,186.371c-14.3,61.241-58.941,93.79-90.857,140.07-26.114,37.887-45.7,116.35-89.676,126.73-49.933,11.78-79.824-92.183-97.184-132.3C52.034,276.383,17.728,240.194,3.462,193.1c-7.5-24.719-1.059-47.785,2.933-72.493,4.377-27.142,7.666-54.874,22.777-76.712C58.915.92,117,1.22,158.835.037c43.305-1.229,81.615,28.22,116.119,57.612C311.548,88.775,363.655,123.563,349.014,186.371Z" transform="translate(537.737 1204.863) rotate(180)" fill="none" stroke="#fff" stroke-miterlimit="10" stroke-width="5"/>
          <path id="Shape-25" data-name="Shape" d="M291.724,175.112c-16.107,43.631-49.955,79.1-77.422,112.589-22.927,27.917-47.586,84.114-82.536,88.12-41.082,4.722-65.979-55.283-82.143-92.085-15.91-36.15-38.834-74.327-47.643-114.01C-7.206,128.388,17.258,72.709,40.587,43.458,66.609,10.845,109.18-1.207,145.71.094c38.247,1.323,73.342,28.276,102.309,56.243C278.987,86.228,310.456,124.461,291.724,175.112Z" transform="translate(504.389 1177.005) rotate(180)" fill="none" stroke="#fff" stroke-miterlimit="10" stroke-width="5"/>
          <path id="Shape-26" data-name="Shape" d="M234.767,158.256c-15.386,36.289-42.056,66.989-66.647,94.372-18.978,21.14-46.98,57.088-74.359,57.969-30.12.975-55.647-29.2-67.62-60.129-11.8-30.5-24.24-68.751-26-102.217C-3.7,75.374,74.416-6.268,133.077.381,188.692,6.687,265.445,85.943,234.767,158.256Z" transform="translate(469.648 1151.933) rotate(180)" fill="none" stroke="#fff" stroke-miterlimit="10" stroke-width="5"/>
          <path id="Shape-27" data-name="Shape" d="M183.656,137.184C162.43,184.467,110.872,251.876,63.142,253.476,8.354,255.306-5.4,180.294,1.741,125.932,9,70.451,72.162-9.856,122.529.995,171.688,11.584,208.811,81.108,183.656,137.184Z" transform="translate(439.082 1126.86) rotate(180)" fill="none" stroke="#fff" stroke-miterlimit="10" stroke-width="5"/>
          <path id="Shape-28" data-name="Shape" d="M138.343,111.4c-17.97,39.589-56.319,89.039-96.317,90.539-47.66,1.77-46.758-61.567-35.952-100.979C17.312,60.035,66.806-9.87,108.535,1.166,149.113,11.94,155.564,73.455,138.343,111.4Z" transform="translate(415.462 1093.431) rotate(180)" fill="none" stroke="#fff" stroke-miterlimit="10" stroke-width="5"/>
          <path id="Shape-29" data-name="Shape" d="M95.826,79.739c-11.862,28.248-41.546,63.953-69.774,65.095-34.5,1.373-27.79-48.859-18.878-73.1C17.769,42.883,53.281-7.244,83.081.878,112.422,8.875,105.614,56.464,95.826,79.739Z" transform="translate(391.839 1057.214) rotate(180)" fill="none" stroke="#fff" stroke-miterlimit="10" stroke-width="5"/>
          <path id="Shape-30" data-name="Shape" d="M413.946,392.094c76.573-56.676,163.136-103.46,244.766-151.012C778,171.606,899.05,103.988,1024.394,52.234c67.2-27.747,154.283-67.744,226.39-46.009,26.364,7.94,50.407,31.973,74.044,47.586,32.6,21.529,65.671,41.992,98.689,62.5,66.234,41.109,132.675,81.806,197.771,125.551,31.346,21.071,61.761,47.608,94.392,65.584,19.071,10.512,41.891,5.594,62.268,4.93,47.2-1.548,94.374-4.482,141.547-6.981,57.7-3.049,115.531-6.293,173.3-5.09,26.057.557,89.863-5.09,104.205,22.287,7.717,14.742-10.47,41.326-18.9,53.627-15.48,22.607-33.271,42.977-50.829,63.142-40.6,46.635-83.725,91.045-119.817,143.137-18.544,26.779-42.84,59.5-30.734,96.055,12.219,36.925,33.385,68.9,46.3,105.7,14.87,42.344,21.041,86.413,28.056,131.316,5.2,33.187,17.3,62.592,28.686,93.186,12.576,33.818,25.6,67.922,34.335,103.586,5.77,23.558,15.086,65.939-5.1,80.854-28.686,21.208-82.476,4.039-115.175-2.212-45.19-8.621-90.051-19.6-135.119-29.06-32.716-6.878-65.548-14.421-98.811-15.224-53.62-1.3-107.42,3.187-160.9,7.36-99.027,7.727-197.344,18.2-296.7,18.2-87.05,0-288.216-122.855-335.305-144.489-93.988-43.18-190.478-84.121-279.419-141.577-24.061-15.556-61.093-36.282-73.753-68.3-7.81-19.729-4.221-31.136-22.642-43.849-25.132-17.344-57.334-24.154-85.154-31.916-44.805-12.5-89.957-23.076-134.968-34.391C280,684.911,189.585,659.1,98.929,634.254c-27.406-7.509-60.566-9.171-86.7-22.4-16.843-8.5-15.1-19.19-2.058-32.1,22.868-22.653,54.917-35.228,81.935-48.147,39.574-18.927,79.806-35.813,120.052-52.458s80.7-32.775,120.964-49.448C359.714,418.708,390.044,409.783,413.946,392.094Z" transform="translate(2337.813 2983.608) rotate(180)" fill="none" stroke="#fff" stroke-miterlimit="10" stroke-width="5"/>
          <path id="Shape-31" data-name="Shape" d="M300.547,320.986C381.316,264.195,470.971,218.952,557.4,174.81,668.017,118.282,781.136,65.3,897.69,29.966c68.427-20.733,149.173-43.625,219.091-19.849,24.944,8.484,43.58,27.552,64.963,44.382,24.373,19.207,49.683,36.8,74.994,54.128q78.152,53.488,157.955,103.32c28.179,17.668,59.193,41.329,91.033,47.459,25.311,4.875,54.061-2.181,79.479-4.236,45.784-3.7,91.558-7.508,137.36-10.745,52.852-3.732,105.854-7.175,158.82-6.579,29.52.333,80.2-5.166,101.074,18.173,18.214,20.366-48.1,94.021-59.761,108.016-36.419,43.693-74.722,85.3-108.62,132.021-20.032,27.552-44.425,61.062-52.87,97.582-7.189,31.123,6.683,66.581,14.877,95.354,10.246,36.036,18.514,73.392,30.419,108.671,10.6,31.432,27.476,59.433,42.3,88.007,16.3,31.432,32.81,63.377,44.911,97.672,7.415,21.1,19.687,56.436,4.95,76.549-17.024,23.189-69.5,8.036-91.071,4.736-43.76-6.8-87.18-16.9-130.64-25.946-72.182-15.016-141-28.149-214.5-25-95.72,4.11-191.347,13.776-287.048,19.126-35.341,2-71.244,6.016-106.614,3.846-20.277-1.254-35.71-8.828-47.508-25.922-16.1-23.327-53.2-36.242-79-49.628-40.225-20.859-80.956-40.255-121.581-59.915-89.168-43.165-180.052-84.77-264.616-140.6-26.753-17.657-57.386-37.345-77.178-66.516-11.042-16.268-8.259-31.938-15-49.227C454.984,622.1,425.643,611.834,408.1,604.4c-33.851-14.373-69.089-24.005-104.054-33.029-79.118-20.412-158.425-33.832-238.827-43.716-18.842-2.3-93.04-10.252-54.071-48.6,43.069-42.383,105.24-63.138,155.926-87.023C212.739,370.57,258.438,350.6,300.547,320.986Z" transform="translate(2156.518 2900.033) rotate(180)" fill="none" stroke="#fff" stroke-miterlimit="10" stroke-width="5"/>
          <path id="Shape-32" data-name="Shape" d="M212.062,240.95c75.92-49.964,160.022-87.238,241.787-122.9,99.22-43.269,200.922-81.839,305-103.446C824.211,1.049,896.283-9.371,961.213,13.164c44.34,15.382,78.646,56.97,117.585,85.576s79.467,55.466,121.2,77.851c25.9,13.891,53.762,27.887,82.582,26.047,70.072-4.448,140.062-15.043,210.209-20.2,46.409-3.439,92.9-6.268,139.45-5.421,28.068.5,66.629-1.559,91.479,16.506,27.468,19.978-118.787,190.557-132.61,209.757-34.657,48.14-76.623,112.03-69.922,180.495,6.41,65.449,34.182,114.312,65.605,165.593,17.83,29.172,75.009,107.1,53.819,145.041-12.105,21.686-52.008,14.178-70.965,12.7-37.359-2.911-74.512-9.169-111.674-14.6-54.191-7.874-109.862-20.036-164.282-23.6-37.894-2.475-76.012.836-113.972.905-54.43.092-108.858-.418-163.287-1.008-45.7-.5-91.788,0-137.33-5.364-28.312-3.3-49.8-10.717-70.11-31.669-17.67-18.225-44.325-28.9-66.854-40.485-37.2-19.13-74.887-36.862-112.452-54.881-78.646-37.734-158.2-74.675-233.482-121.831C361.836,593.061,304.057,562.94,296,510.775c-2.91-18.8-5.049-26.936-20.063-37.629-21.312-15.183-46.837-22.019-70.748-27.968-55.743-13.869-113.105-11.8-168.749-25.5-22.663-5.651-52.245-17.846-26.38-45.768,30.19-32.655,74.137-50.606,110.3-70.778,18.055-10.064,36.655-19.485,53.8-31.774C187.325,261.892,198.6,249.749,212.062,240.95Z" transform="translate(1956.412 2809.494) rotate(180)" fill="none" stroke="#fff" stroke-miterlimit="10" stroke-width="5"/>
          <path id="Shape-33" data-name="Shape" d="M147.426,166.012c70.141-40.581,146.314-70.086,221.121-96.685,83.092-29.5,168.182-53.943,254.4-64.341,59.535-7.2,122.971-9.332,180.748,12.719,36.544,13.949,61.315,43.28,92.758,67.879,47.457,37.18,98.8,66.64,155.814,59.47q95.876-12.029,192.385-18.049c38.809-2.424,77.768-4.24,116.622-2.55,24.566,1.057,56.216,2.837,77.588,16.453,28.6,18.233-78.817,156.981-92.206,177.2-33.209,50.145-57.547,102.773-71.77,164.908-11.6,50.7,12.1,90.56,36.544,128.487,15.2,23.554,64.3,82.793,48.927,113.383-8.433,16.867-36.223,15.993-51.148,16.854-28.446,1.631-57.014-.068-85.454-.816-42-1.149-86.714,6.745-128.362.39-92.3-14.068-184.363-26.242-277.235-35.881-51.195-5.308-102.7-10.133-153.436-20.371-18.215-3.677-37.029-7.572-54.286-15.89-11.1-5.343-17.156-14.442-26.526-21.91-44.674-35.548-102.99-53.84-153.3-76.624-66.889-30.286-134.134-60.1-199.242-95.879-34.246-18.82-82.076-40.443-105.641-78.853-7.121-11.6-4.085-20.894-8.563-32.044-5.154-12.868-20.809-16.705-30.919-20.29C63.3,335.426-32.75,323.109,11.511,275.319c21.12-22.76,48.028-37.363,71.837-55.253,8.615-6.48,17.024-12.994,24.211-21.738C119.571,183.672,131.414,175.307,147.426,166.012Z" transform="translate(1747.983 2718.956) rotate(180)" fill="none" stroke="#fff" stroke-miterlimit="10" stroke-width="5"/>
          <path id="Shape-34" data-name="Shape" d="M140.857,102.8C279.322,37.137,441.6-7.593,592.56,1.073c50.2,2.893,104.212,12.546,147.733,45.579,25.66,19.512,46.167,41.539,76.988,48.587,22.251,5.084,46.212-.688,68.594-2.777,32.42-3.03,64.858-5.739,97.325-7.931,40.25-2.674,80.631-4.736,120.956-3.638,28.814.793,68.6-.1,93.634,18.835,29.884,22.589-46.183,128.554-56.886,147.435-25.942,45.767-44.128,90.1-50.7,145.255-1.934,16.069-8.45,32.54-7.6,48.736.882,16.539,9.211,31.267,16.9,44.271,10.056,17.045,44.945,57.47,34.954,78.258-5.521,11.478-26.242,12.925-36.983,15.358-20.148,4.6-40.587,7.059-60.86,10.709-34.391,6.221-68.538,26.479-103.051,25.908-92.807-1.516-186.959-36.73-277.908-56.07-54.07-11.536-108.506-22.008-161.918-37.625-16.9-4.948-34.307-10.067-50.371-18.456-11.21-5.85-18.411-16.287-28.8-22.844-39.818-25.171-85.607-40.449-128.363-57.388C230.7,401.237,175,379.865,119.879,356.4,85.328,341.7,40.9,328.764,11.129,301.492c-21.744-19.919-6.882-25.872,4.585-44.42,5.858-9.458,4.506-18.778,7.05-29.487,3.639-15.294,13.915-26.3,23.547-36.2C59.6,177.716,77.3,166.453,88.157,149.7c3.831-5.9,3.652-13.223,6.75-18.365C103.921,116.358,127.837,108.966,140.857,102.8Z" transform="translate(1588.202 2638.166) rotate(180)" fill="none" stroke="#fff" stroke-miterlimit="10" stroke-width="5"/>
          <path id="Shape-35" data-name="Shape" d="M199.143,56.537C311.526,15.26,436.565-8.244,555.357,2.664c41.331,3.8,82.914,12.63,121.414,32.023,17.516,8.795,30.665,18.6,49.86,19.129,44.536,1.217,89.206-3.042,133.739-4.065,31.865-.735,63.889-1,95.68,2.135,21.259,2.089,50,4.6,67.413,20.541,25.3,23.228-20.374,102.189-29.671,124.005-15.408,36.179-30.694,76.4-24.583,118.258,1.875,12.8,5.193,24.113,5.623,37.167.417,11.219-.741,21.575,2.512,32.3,4.021,13.3,21.9,33.928,15.754,46.169-4.189,8.357-16.617,8.749-24.883,11.422a222.52,222.52,0,0,0-39.138,17.016c-13.309,7.395-24.639,18.818-38.425,24.933-22.381,9.9-47.432,10.827-70.956,10.781-93.861-.184-188.912-22.844-280.394-46.523-47.638-12.331-95.539-25.479-141.837-44.183-14.058-5.683-29.991-11.39-42.352-21.884-7.713-6.533-12.943-14.72-21.705-19.64-74.855-41.954-161.4-57.535-240.861-87.837-20.684-7.888-135.314-47.742-75.379-85.231,36.4-22.78,74.883-33.137,108.1-64.3,10.123-9.472,16.87-17.315,20.824-31.771,2.605-9.622-3.664-4.736,5.088-14.8C161.8,66.228,186.054,61.348,199.143,56.537Z" transform="translate(1501.097 2568.521) rotate(180)" fill="none" stroke="#fff" stroke-miterlimit="10" stroke-width="5"/>
          <path id="Shape-36" data-name="Shape" d="M206.224,26.622C337.8-7.07,477.131-8.673,610.78,21.19c33.691,7.522,68.755,5.723,102.861,7.636,33.137,1.832,92.053-1.981,116.122,29.193,17.452,22.6-1.485,70.62-8.035,95.9-8.345,32.2-15.639,65.467-1.936,96.749,8.026,18.317,19.022,35.753,27.63,53.9,4.116,8.667,12.593,21.947,9.06,30.155-5.846,13.543-33.194,19.244-46.464,25.63-42.413,20.421-87.326,25.624-132.672,25.485-83.755-.263-167.942-14.276-250.1-33.279-37.794-8.746-76.124-18.077-112.579-33.279-20.629-8.6-35.849-25.187-55.542-35.02-63.427-31.689-131.572-48.621-196.089-77.6C44.361,198.27-25.391,170.335,9.748,137.4,43.768,105.515,93.4,109.305,128.764,79.314c4-3.435,8.957-7.544,11.277-13.093,1.371-3.319-1.043-9.639,0-11.528C150.9,34.155,189.529,30.893,206.224,26.622Z" transform="translate(1391.374 2514.198) rotate(180)" fill="none" stroke="#fff" stroke-miterlimit="10" stroke-width="5"/>
          <path id="Shape-37" data-name="Shape" d="M165.021,15.462C232.522,4.133,301.506,1.324,370.143.61,407.66.219,448.881-2.7,485.59,8.92c22.55,7.16,44.325,13.421,67.576,17.934,25.011,4.857,65.283,8.391,80.513,34.715,11.379,19.672,3.579,60.108,3.167,84.027-.442,26.233,3.956,45.687,19.093,64.458,9.518,11.822,53.18,54.733,48.135,67.106-4.8,11.787-35.225,13.593-48.38,16.656-41.577,9.716-83.708,13.093-126,12.57-65.5-.805-131.241-8.979-195.717-23.021-26.656-5.836-54.2-11.879-79.667-23.54-17.148-7.862-31.449-21.8-48.482-29.927-48.784-23.309-100.366-39.141-149.32-62.87C40.8,159.4-10.391,139.082,1.881,107.774,12.114,81.633,46.915,73.685,64.016,56.16,93.1,26.279,127.927,21.675,165.021,15.462Z" transform="translate(1264.865 2480.768) rotate(180)" fill="none" stroke="#fff" stroke-miterlimit="10" stroke-width="5"/>
          <path id="Shape-38" data-name="Shape" d="M103.332,10.98A1202.859,1202.859,0,0,1,266,.043C301.063-.06,338.054-.645,372.463,9c17.284,4.839,32.3,16.158,48.66,24.227,16.843,8.3,40.088,17.565,47.369,36.6,6.841,17.886,4.285,43.981,10.293,65.548,5.343,19.136,16.525,30.956,28.57,43.889,7.673,8.267,47.079,44.051,42.519,51.956-4.885,8.462-28.55,7.774-40.865,8.942a777,777,0,0,1-102,3.13c-46.433-1.742-93.223-6.6-138.851-17.61-32.375-7.8-56.783-26.371-86.962-39.992-39.1-17.69-79.6-31.679-118.32-51.032C43.583,125,15.023,112.6,5.141,87.707c-3.8-9.539-7.487-33.8-3.257-43.339C6.966,32.9,25.878,28.042,34.8,25.094,57.17,17.745,80.574,14.168,103.332,10.98Z" transform="translate(1160.668 2461.267) rotate(180)" fill="none" stroke="#fff" stroke-miterlimit="10" stroke-width="5"/>
          <path id="Shape-39" data-name="Shape" d="M85.408,9.786C152.343.571,227.971-7.25,295.11,11.295c27.133,7.487,54.153,29.669,65.216,59.9,5.733,15.631,6.966,34.235,15.526,49.383,6.34,11.2,14.406,21.312,22.361,30.733,4.481,5.322,33.192,34.477,27.651,39.684-5.844,5.5-20.185,3.7-29.98,3.836a659.4,659.4,0,0,1-70.407-2.949c-26.89-2.507-54.414-5.76-80.491-14.56-21.036-7.141-40.2-22.175-60.688-31.1C130.449,122.576,73.7,104.05,23.143,69.042,12.387,61.6-8.882,50.461,4.04,33.643,20.117,12.689,64.728,12.619,85.408,9.786Z" transform="translate(1092.637 2441.766) rotate(180)" fill="none" stroke="#fff" stroke-miterlimit="10" stroke-width="5"/>
          <path id="Shape-40" data-name="Shape" d="M60.386,5.5c47.66-6.452,100.536-9.483,148.388,3.81,24.233,6.726,45.854,20.74,56.4,47.865,7.552,19.334,9.588,40.908,19.909,59.487,3.653,6.555,17.077,24.95,10.46,28.966-14.16,8.636-45.766-1.3-65.411-5.835-29.566-6.864-54.252-26.082-82.364-37.476C104.65,84.849,50.01,75.514,10.713,45.736-27.161,16.942,46.48,7.391,60.386,5.5Z" transform="translate(1009.285 2420.873) rotate(180)" fill="none" stroke="#fff" stroke-miterlimit="10" stroke-width="5"/>
          <path id="Shape-41" data-name="Shape" d="M34.294,3.173C74.729-2.631,146.656-5.5,169.727,41.2c4.281,8.671,16.1,56.54,4.678,60.813-9.414,3.507-24.188-2.284-34.825-7.7C119.8,84.293,101.231,73.371,80.786,65.1,63.378,58.063,45.553,51.574,28.374,43.393c-7.291-3.434-21-7.6-25.57-15.407C-9.508,6.964,21.982,4.932,34.294,3.173Z" transform="translate(928.699 2402.764) rotate(180)" fill="#01002d" stroke="#fff" stroke-width="5"/>
        </g>
      </g>
    </g>
    <g id="Tree" transform="translate(1590.787 377)">
      <path id="Path_105" data-name="Path 105" d="M190.818,307.869c-25.558,9.795-20.809,43.387-12.05,63.922.028.2.039.408.069.611a1.459,1.459,0,0,0,.658,1.041c1.132,2.39,4.462.538,4.051-1.758-.364-2.026-.828-4.019-1.345-5.993-.144-8.96,1.135-17.771,2.38-26.722.769-5.519,1.787-10.982,3.092-16.4,1.024-4.249,3.677-8.088,3.867-12.435.065-.039.12-.08.184-.118C192.825,309.348,192.1,307.377,190.818,307.869Z" transform="translate(-121.781 -255.452)" fill="#06330d"/>
      <path id="Path_106" data-name="Path 106" d="M158.953,276.368c-2.194-5.512-6.238-11.111-11.343-16.11-1.067-1.4-2.29-2.719-3.34-3.95a11.29,11.29,0,0,0-1.321-1.3c-7.558-12.16-22.884-15.849-35.784-11.43-7.534,1.1-14.312,5.253-19.034,13.718a.466.466,0,0,0,.062.5.331.331,0,0,1-.042,0,.474.474,0,0,0,0,.947c1.7.066,3.408.162,5.113.272a1.546,1.546,0,0,0,.749.334,125.966,125.966,0,0,0,17.243,1.707c3.777.614,7.532,1.334,11.247,2.185,10.328,2.365,19.045,6.809,27.837,11.995-1.824-.065-3.711-.035-5.624.081-12.643-1.689-25.678-1.922-36.064,6.451-9.98,8.047-13.262,22.379-13.821,34.536a.7.7,0,0,0,.263.575c-.045.32-.1.644-.137.963-.061.213-.14.42-.2.636-.47,1.818,2.168,3.022,3.079,1.3,6.561-12.395,14.962-21.225,26.886-28.705,4.106-2.575,8.1-5.263,12.258-7.516l.032-.013c.028-.012.047-.034.073-.045,5.391-2.912,11.059-5.056,17.57-5.262C156.091,280.292,159.986,278.964,158.953,276.368Z" transform="translate(-87.693 -228.69)" fill="#06330d"/>
      <path id="Path_107" data-name="Path 107" d="M225.808,219.978c-7.821-.847-16.5.627-20.749,7.892-2.837,4.855-2.536,10.8-1.505,16.819a51.8,51.8,0,0,0,1.942,15.845c-.052.516-.114,1.03-.146,1.547-.139,2.28,3.209,2.163,3.475,0,.029-.24.072-.482.1-.724a2.126,2.126,0,0,0,.446-1.675q-.048-.32-.093-.637c2.147-12.514,8.136-26.17,16.322-35.729.069,0,.136,0,.205,0C228,223.283,227.9,220.205,225.808,219.978Z" transform="translate(-134.368 -219.764)" fill="#06330d"/>
      <path id="Path_108" data-name="Path 108" d="M260.237,264.636c-5.476-8.98-5.009-8.73-15.105-8.673-11.159.061-21.327,10.993-26.361,20.325a7.951,7.951,0,0,0-2.135,1.818.214.214,0,0,0,.149.36c3.076.147,6.225-1.334,9.179-2.144,4.349-1.19,8.764-2.144,13.13-3.281,9.636-2.509,12.286-5.381,21.84-.911.413.193-.351-1.517,0-1.632C262.407,271.064,261.284,266.355,260.237,264.636Z" transform="translate(-139.947 -234.44)" fill="#06330d"/>
      <path id="Path_109" data-name="Path 109" d="M262.14,300.432c-9.874-7.972-25.562-1.84-37.16-1.575-.682-.116-1.356-.229-2.011-.342a.635.635,0,0,0-.487,1.155c5.847,4.132,13.856,5.093,20.615,7.01,10.629,3.015,17.221,7.86,20.269,18.76a1.627,1.627,0,0,0,2.507,1.025,2.573,2.573,0,0,0,1.913-1.62C270.479,317.205,268.632,305.675,262.14,300.432Z" transform="translate(-142.218 -250.816)" fill="#06330d"/>
      <path id="Path_110" data-name="Path 110" d="M213.776,311.09c-.3-.3-.938,0-.762.445,4.948,12.432,9.049,24.706,11.351,37.969.065,6.152,1.429,12.427,1.739,18.5.458,8.959.148,17.939.1,26.9-.022,3.885,0,14.235,2.662,12.888.843.447,8.592-10.675,9.784-10.874C253.437,394.462,222.013,319.412,213.776,311.09Z" transform="translate(-138.488 -256.74)" fill="#80533b"/>
    </g>
    <g id="Tree-2" data-name="Tree" transform="translate(173 330.593)">
      <path id="Path_105-2" data-name="Path 105" d="M175.137,307.972c59.439,22.779,48.394,100.9,28.024,148.661-.065.472-.09.949-.16,1.422a3.392,3.392,0,0,1-1.531,2.421c-2.633,5.557-10.378,1.251-9.422-4.089.848-4.711,1.926-9.346,3.128-13.938.336-20.837-2.64-41.33-5.535-62.147-1.788-12.836-4.157-25.54-7.191-38.139-2.381-9.881-8.551-18.81-8.992-28.92-.151-.091-.279-.187-.429-.275C170.47,311.411,172.153,306.829,175.137,307.972Z" transform="translate(-40.885 -186.068)" fill="#06330d"/>
      <path id="Path_106-2" data-name="Path 106" d="M88.093,322.22c5.1-12.82,14.507-25.84,26.381-37.467,2.482-3.252,5.327-6.323,7.769-9.187a26.265,26.265,0,0,1,3.073-3.02c17.578-28.28,53.221-36.858,83.221-26.581,17.521,2.558,33.284,12.217,44.266,31.9a1.083,1.083,0,0,1-.144,1.174.777.777,0,0,0,.1,0,1.1,1.1,0,0,1,0,2.2c-3.96.154-7.926.376-11.892.633a3.6,3.6,0,0,1-1.742.776,292.944,292.944,0,0,1-40.1,3.97c-8.784,1.428-17.517,3.1-26.157,5.08-24.021,5.5-44.292,15.835-64.74,27.9,4.241-.152,8.63-.082,13.078.188,29.4-3.929,59.719-4.469,83.872,15,23.21,18.715,30.843,52.046,32.143,80.32a1.633,1.633,0,0,1-.613,1.337c.1.745.235,1.5.319,2.239.141.5.325.976.454,1.48,1.092,4.227-5.042,7.027-7.16,3.016-15.258-28.826-34.8-49.363-62.527-66.759-9.548-5.989-18.848-12.239-28.508-17.48l-.075-.03c-.065-.028-.109-.079-.17-.105-12.538-6.772-25.719-11.759-40.862-12.236C94.75,331.346,85.691,328.257,88.093,322.22Z" transform="translate(40.989 -211.336)" fill="#06330d"/>
      <path id="Path_107-2" data-name="Path 107" d="M206.56,220.262c18.188-1.969,38.382,1.459,48.254,18.355,6.6,11.292,5.9,25.118,3.5,39.115a120.467,120.467,0,0,1-4.516,36.85c.122,1.2.265,2.4.34,3.6.322,5.3-7.463,5.031-8.081,0-.068-.557-.167-1.122-.242-1.683a4.945,4.945,0,0,1-1.037-3.9q.112-.745.217-1.481c-4.993-29.1-18.922-60.862-37.959-83.093-.16,0-.317-.007-.477-.011C201.452,227.949,201.7,220.79,206.56,220.262Z" transform="translate(-124.412 -219.764)" fill="#06330d"/>
      <path id="Path_108-2" data-name="Path 108" d="M219.846,276.151c12.736-20.884,11.65-20.3,35.129-20.17,25.952.143,49.6,25.565,61.308,47.269a18.491,18.491,0,0,1,4.966,4.228.5.5,0,0,1-.347.837c-7.153.343-14.477-3.1-21.348-4.986-10.115-2.768-20.381-4.986-30.535-7.63-22.411-5.835-28.573-12.514-50.792-2.12-.961.449.816-3.529,0-3.794C214.8,291.1,217.412,280.149,219.846,276.151Z" transform="translate(-204.793 -205.925)" fill="#06330d"/>
      <path id="Path_109-2" data-name="Path 109" d="M238.093,305.835c22.964-18.54,59.449-4.278,86.422-3.663,1.586-.27,3.154-.534,4.678-.8a1.477,1.477,0,0,1,1.133,2.687c-13.6,9.609-32.225,11.845-47.943,16.3-24.72,7.011-40.051,18.279-47.139,43.63-.883,3.154-3.741,3.579-5.83,2.384a5.983,5.983,0,0,1-4.448-3.768C218.7,344.845,222.994,318.03,238.093,305.835Z" transform="translate(-222.183 -190.446)" fill="#06330d"/>
      <path id="Path_110-2" data-name="Path 110" d="M279.9,311.251c.7-.707,2.181.008,1.771,1.034-11.508,28.913-21.045,57.458-26.4,88.3-.151,14.306-3.323,28.9-4.045,43.027-1.065,20.835-.344,41.719-.228,62.566.051,9.036-.008,33.106-6.19,29.973-1.961,1.039-19.982-24.827-22.755-25.289C187.666,505.147,260.747,330.606,279.9,311.251Z" transform="translate(-160.189 -184.852)" fill="#80533b"/>
    </g>
  </g>
</svg>
